<svg xmlns="http://www.w3.org/2000/svg" viewBox="0 0 46 48" width="46" height="48">
  <defs>
    <linearGradient id="flameGrad" x1="0%" y1="0%" x2="0%" y2="100%">
      <stop offset="0%" stop-color="#FC9403"/>
      <stop offset="100%" stop-color="#FCD703"/>
    </linearGradient>
  </defs>
  <path fill="url(#flameGrad)" d="M23.5 0C23.5 0 32 10 36 18C40 26 42 35 35 42C28 49 18 49 11 42C4 35 6 26 10 18C14 10 23.5 0 23.5 0ZM23.5 8C23.5 8 18 16 15 22C12 28 11 34 16 39C21 44 26 44 31 39C36 34 35 28 32 22C29 16 23.5 8 23.5 8ZM20 28C20 28 23 24 26 28C29 32 26 36 23 36C20 36 17 32 20 28Z"/>
</svg>
