<svg xmlns="http://www.w3.org/2000/svg" viewBox="0 0 30 20">
  <rect width="30" height="20" fill="#de2910"/>
  <g fill="#ffde00">
    <polygon points="5,4 4.05,6.94 1,6.94 3.47,8.82 2.53,11.76 5,9.88 7.47,11.76 6.53,8.82 9,6.94 5.95,6.94"/>
    <polygon points="11,2 10.69,2.95 9.7,2.95 10.51,3.54 10.19,4.49 11,3.9 11.81,4.49 11.49,3.54 12.3,2.95 11.31,2.95"/>
    <polygon points="13,4 12.69,4.95 11.7,4.95 12.51,5.54 12.19,6.49 13,5.9 13.81,6.49 13.49,5.54 14.3,4.95 13.31,4.95"/>
    <polygon points="13,7 12.69,7.95 11.7,7.95 12.51,8.54 12.19,9.49 13,8.9 13.81,9.49 13.49,8.54 14.3,7.95 13.31,7.95"/>
    <polygon points="11,9 10.69,9.95 9.7,9.95 10.51,10.54 10.19,11.49 11,10.9 11.81,11.49 11.49,10.54 12.3,9.95 11.31,9.95"/>
  </g>
</svg>
